<?xml version="1.0" encoding="us-ascii" standalone="no"?><svg xmlns="http://www.w3.org/2000/svg" xmlns:xlink="http://www.w3.org/1999/xlink" contentStyleType="text/css" height="973px" preserveAspectRatio="none" style="width:1479px;height:973px;background:#FFFFFF;" version="1.1" viewBox="0 0 1479 973" width="1479px" zoomAndPan="magnify"><defs/><g><!--class User--><g id="elem_User"><rect codeLine="1" fill="#F1F1F1" height="210.9688" id="User" rx="2.5" ry="2.5" style="stroke:#181818;stroke-width:0.5;" width="272" x="237" y="23.5"/><ellipse cx="353.25" cy="39.5" fill="#ADD1B2" rx="11" ry="11" style="stroke:#181818;stroke-width:1.0;"/><path d="M355.5938,35.1719 C354.6563,34.7344 354.0625,34.5938 353.1875,34.5938 C350.5625,34.5938 348.5625,36.6719 348.5625,39.3906 L348.5625,40.5156 C348.5625,43.0938 350.6719,44.9844 353.5625,44.9844 C354.7813,44.9844 355.9375,44.6875 356.6875,44.1406 C357.2656,43.7344 357.5938,43.2813 357.5938,42.8906 C357.5938,42.4375 357.2031,42.0469 356.7344,42.0469 C356.5156,42.0469 356.3125,42.125 356.125,42.3125 C355.6719,42.7969 355.6719,42.7969 355.4844,42.8906 C355.0625,43.1563 354.375,43.2813 353.6094,43.2813 C351.5625,43.2813 350.2656,42.1875 350.2656,40.4844 L350.2656,39.3906 C350.2656,37.6094 351.5156,36.2969 353.25,36.2969 C353.8281,36.2969 354.4375,36.4531 354.9063,36.7031 C355.3906,36.9844 355.5625,37.2031 355.6563,37.6094 C355.7188,38.0156 355.75,38.1406 355.8906,38.2656 C356.0313,38.4063 356.2656,38.5156 356.4844,38.5156 C356.75,38.5156 357.0156,38.375 357.1875,38.1563 C357.2969,38 357.3281,37.8125 357.3281,37.3906 L357.3281,35.9688 C357.3281,35.5313 357.3125,35.4063 357.2188,35.25 C357.0625,34.9844 356.7813,34.8438 356.4844,34.8438 C356.1875,34.8438 355.9844,34.9375 355.7656,35.25 L355.5938,35.1719 Z " fill="#000000"/><text fill="#000000" font-family="sans-serif" font-size="14" lengthAdjust="spacing" textLength="31" x="373.75" y="44.3467">User</text><line style="stroke:#181818;stroke-width:0.5;" x1="238" x2="508" y1="55.5" y2="55.5"/><ellipse cx="248" cy="69.1484" fill="none" rx="3" ry="3" style="stroke:#038048;stroke-width:1.0;"/><text fill="#000000" font-family="sans-serif" font-size="14" lengthAdjust="spacing" textLength="93" x="257" y="72.4951">name: String</text><ellipse cx="248" cy="85.4453" fill="none" rx="3" ry="3" style="stroke:#038048;stroke-width:1.0;"/><text fill="#000000" font-family="sans-serif" font-size="14" lengthAdjust="spacing" textLength="120" x="257" y="88.792">password: String</text><ellipse cx="248" cy="101.7422" fill="none" rx="3" ry="3" style="stroke:#038048;stroke-width:1.0;"/><text fill="#000000" font-family="sans-serif" font-size="14" lengthAdjust="spacing" textLength="169" x="257" y="105.0889">phoneNumber: Number</text><ellipse cx="248" cy="118.0391" fill="none" rx="3" ry="3" style="stroke:#038048;stroke-width:1.0;"/><text fill="#000000" font-family="sans-serif" font-size="14" lengthAdjust="spacing" textLength="81" x="257" y="121.3857">role: String</text><ellipse cx="248" cy="134.3359" fill="none" rx="3" ry="3" style="stroke:#038048;stroke-width:1.0;"/><text fill="#000000" font-family="sans-serif" font-size="14" lengthAdjust="spacing" textLength="98" x="257" y="137.6826">avatar: String</text><ellipse cx="248" cy="150.6328" fill="none" rx="3" ry="3" style="stroke:#038048;stroke-width:1.0;"/><text fill="#000000" font-family="sans-serif" font-size="14" lengthAdjust="spacing" textLength="150" x="257" y="153.9795">refreshToken: String</text><ellipse cx="248" cy="166.9297" fill="none" rx="3" ry="3" style="stroke:#038048;stroke-width:1.0;"/><text fill="#000000" font-family="sans-serif" font-size="14" lengthAdjust="spacing" textLength="210" x="257" y="170.2764">forgotPasswordToken: String</text><ellipse cx="248" cy="183.2266" fill="none" rx="3" ry="3" style="stroke:#038048;stroke-width:1.0;"/><text fill="#000000" font-family="sans-serif" font-size="14" lengthAdjust="spacing" textLength="246" x="257" y="186.5732">forgotPasswordTokenExpiry: Date</text><ellipse cx="248" cy="199.5234" fill="none" rx="3" ry="3" style="stroke:#038048;stroke-width:1.0;"/><text fill="#000000" font-family="sans-serif" font-size="14" lengthAdjust="spacing" textLength="139" x="257" y="202.8701">verifyToken: String</text><ellipse cx="248" cy="215.8203" fill="none" rx="3" ry="3" style="stroke:#038048;stroke-width:1.0;"/><text fill="#000000" font-family="sans-serif" font-size="14" lengthAdjust="spacing" textLength="175" x="257" y="219.167">verifyTokenExpiry: Date</text><line style="stroke:#181818;stroke-width:0.5;" x1="238" x2="508" y1="226.4688" y2="226.4688"/></g><!--class Work--><g id="elem_Work"><rect codeLine="14" fill="#F1F1F1" height="96.8906" id="Work" rx="2.5" ry="2.5" style="stroke:#181818;stroke-width:0.5;" width="184" x="13" y="679.5"/><ellipse cx="81.75" cy="695.5" fill="#ADD1B2" rx="11" ry="11" style="stroke:#181818;stroke-width:1.0;"/><path d="M84.0938,691.1719 C83.1563,690.7344 82.5625,690.5938 81.6875,690.5938 C79.0625,690.5938 77.0625,692.6719 77.0625,695.3906 L77.0625,696.5156 C77.0625,699.0938 79.1719,700.9844 82.0625,700.9844 C83.2813,700.9844 84.4375,700.6875 85.1875,700.1406 C85.7656,699.7344 86.0938,699.2813 86.0938,698.8906 C86.0938,698.4375 85.7031,698.0469 85.2344,698.0469 C85.0156,698.0469 84.8125,698.125 84.625,698.3125 C84.1719,698.7969 84.1719,698.7969 83.9844,698.8906 C83.5625,699.1563 82.875,699.2813 82.1094,699.2813 C80.0625,699.2813 78.7656,698.1875 78.7656,696.4844 L78.7656,695.3906 C78.7656,693.6094 80.0156,692.2969 81.75,692.2969 C82.3281,692.2969 82.9375,692.4531 83.4063,692.7031 C83.8906,692.9844 84.0625,693.2031 84.1563,693.6094 C84.2188,694.0156 84.25,694.1406 84.3906,694.2656 C84.5313,694.4063 84.7656,694.5156 84.9844,694.5156 C85.25,694.5156 85.5156,694.375 85.6875,694.1563 C85.7969,694 85.8281,693.8125 85.8281,693.3906 L85.8281,691.9688 C85.8281,691.5313 85.8125,691.4063 85.7188,691.25 C85.5625,690.9844 85.2813,690.8438 84.9844,690.8438 C84.6875,690.8438 84.4844,690.9375 84.2656,691.25 L84.0938,691.1719 Z " fill="#000000"/><text fill="#000000" font-family="sans-serif" font-size="14" lengthAdjust="spacing" textLength="38" x="102.25" y="700.3467">Work</text><line style="stroke:#181818;stroke-width:0.5;" x1="14" x2="196" y1="711.5" y2="711.5"/><ellipse cx="24" cy="725.1484" fill="none" rx="3" ry="3" style="stroke:#038048;stroke-width:1.0;"/><text fill="#000000" font-family="sans-serif" font-size="14" lengthAdjust="spacing" textLength="156" x="33" y="728.4951">employeeId: ObjectId</text><ellipse cx="24" cy="741.4453" fill="none" rx="3" ry="3" style="stroke:#038048;stroke-width:1.0;"/><text fill="#000000" font-family="sans-serif" font-size="14" lengthAdjust="spacing" textLength="74" x="33" y="744.792">work: Map</text><ellipse cx="24" cy="757.7422" fill="none" rx="3" ry="3" style="stroke:#038048;stroke-width:1.0;"/><text fill="#000000" font-family="sans-serif" font-size="14" lengthAdjust="spacing" textLength="158" x="33" y="761.0889">totalAmount: Number</text><line style="stroke:#181818;stroke-width:0.5;" x1="14" x2="196" y1="768.3906" y2="768.3906"/></g><!--class Tailor--><g id="elem_Tailor"><rect codeLine="20" fill="#F1F1F1" height="162.0781" id="Tailor" rx="2.5" ry="2.5" style="stroke:#181818;stroke-width:0.5;" width="196" x="7" y="343.5"/><ellipse cx="80.75" cy="359.5" fill="#ADD1B2" rx="11" ry="11" style="stroke:#181818;stroke-width:1.0;"/><path d="M83.0938,355.1719 C82.1563,354.7344 81.5625,354.5938 80.6875,354.5938 C78.0625,354.5938 76.0625,356.6719 76.0625,359.3906 L76.0625,360.5156 C76.0625,363.0938 78.1719,364.9844 81.0625,364.9844 C82.2813,364.9844 83.4375,364.6875 84.1875,364.1406 C84.7656,363.7344 85.0938,363.2813 85.0938,362.8906 C85.0938,362.4375 84.7031,362.0469 84.2344,362.0469 C84.0156,362.0469 83.8125,362.125 83.625,362.3125 C83.1719,362.7969 83.1719,362.7969 82.9844,362.8906 C82.5625,363.1563 81.875,363.2813 81.1094,363.2813 C79.0625,363.2813 77.7656,362.1875 77.7656,360.4844 L77.7656,359.3906 C77.7656,357.6094 79.0156,356.2969 80.75,356.2969 C81.3281,356.2969 81.9375,356.4531 82.4063,356.7031 C82.8906,356.9844 83.0625,357.2031 83.1563,357.6094 C83.2188,358.0156 83.25,358.1406 83.3906,358.2656 C83.5313,358.4063 83.7656,358.5156 83.9844,358.5156 C84.25,358.5156 84.5156,358.375 84.6875,358.1563 C84.7969,358 84.8281,357.8125 84.8281,357.3906 L84.8281,355.9688 C84.8281,355.5313 84.8125,355.4063 84.7188,355.25 C84.5625,354.9844 84.2813,354.8438 83.9844,354.8438 C83.6875,354.8438 83.4844,354.9375 83.2656,355.25 L83.0938,355.1719 Z " fill="#000000"/><text fill="#000000" font-family="sans-serif" font-size="14" lengthAdjust="spacing" textLength="40" x="101.25" y="364.3467">Tailor</text><line style="stroke:#181818;stroke-width:0.5;" x1="8" x2="202" y1="375.5" y2="375.5"/><ellipse cx="18" cy="389.1484" fill="none" rx="3" ry="3" style="stroke:#038048;stroke-width:1.0;"/><text fill="#000000" font-family="sans-serif" font-size="14" lengthAdjust="spacing" textLength="93" x="27" y="392.4951">name: String</text><ellipse cx="18" cy="405.4453" fill="none" rx="3" ry="3" style="stroke:#038048;stroke-width:1.0;"/><text fill="#000000" font-family="sans-serif" font-size="14" lengthAdjust="spacing" textLength="121" x="27" y="408.792">user_id: ObjectId</text><ellipse cx="18" cy="421.7422" fill="none" rx="3" ry="3" style="stroke:#038048;stroke-width:1.0;"/><text fill="#000000" font-family="sans-serif" font-size="14" lengthAdjust="spacing" textLength="125" x="27" y="425.0889">advance: Number</text><ellipse cx="18" cy="438.0391" fill="none" rx="3" ry="3" style="stroke:#038048;stroke-width:1.0;"/><text fill="#000000" font-family="sans-serif" font-size="14" lengthAdjust="spacing" textLength="116" x="27" y="441.3857">earned: Number</text><ellipse cx="18" cy="454.3359" fill="none" rx="3" ry="3" style="stroke:#038048;stroke-width:1.0;"/><text fill="#000000" font-family="sans-serif" font-size="14" lengthAdjust="spacing" textLength="170" x="27" y="457.6826">aadharnumber: Number</text><ellipse cx="18" cy="470.6328" fill="none" rx="3" ry="3" style="stroke:#038048;stroke-width:1.0;"/><text fill="#000000" font-family="sans-serif" font-size="14" lengthAdjust="spacing" textLength="167" x="27" y="473.9795">stitchingAmounts: Map</text><ellipse cx="18" cy="486.9297" fill="none" rx="3" ry="3" style="stroke:#038048;stroke-width:1.0;"/><text fill="#000000" font-family="sans-serif" font-size="14" lengthAdjust="spacing" textLength="116" x="27" y="490.2764">work: ObjectId[]</text><line style="stroke:#181818;stroke-width:0.5;" x1="8" x2="202" y1="497.5781" y2="497.5781"/></g><!--class CuttingMaster--><g id="elem_CuttingMaster"><rect codeLine="30" fill="#F1F1F1" height="162.0781" id="CuttingMaster" rx="2.5" ry="2.5" style="stroke:#181818;stroke-width:0.5;" width="196" x="238" y="343.5"/><ellipse cx="280.45" cy="359.5" fill="#ADD1B2" rx="11" ry="11" style="stroke:#181818;stroke-width:1.0;"/><path d="M282.7938,355.1719 C281.8563,354.7344 281.2625,354.5938 280.3875,354.5938 C277.7625,354.5938 275.7625,356.6719 275.7625,359.3906 L275.7625,360.5156 C275.7625,363.0938 277.8719,364.9844 280.7625,364.9844 C281.9813,364.9844 283.1375,364.6875 283.8875,364.1406 C284.4656,363.7344 284.7938,363.2813 284.7938,362.8906 C284.7938,362.4375 284.4031,362.0469 283.9344,362.0469 C283.7156,362.0469 283.5125,362.125 283.325,362.3125 C282.8719,362.7969 282.8719,362.7969 282.6844,362.8906 C282.2625,363.1563 281.575,363.2813 280.8094,363.2813 C278.7625,363.2813 277.4656,362.1875 277.4656,360.4844 L277.4656,359.3906 C277.4656,357.6094 278.7156,356.2969 280.45,356.2969 C281.0281,356.2969 281.6375,356.4531 282.1063,356.7031 C282.5906,356.9844 282.7625,357.2031 282.8563,357.6094 C282.9188,358.0156 282.95,358.1406 283.0906,358.2656 C283.2313,358.4063 283.4656,358.5156 283.6844,358.5156 C283.95,358.5156 284.2156,358.375 284.3875,358.1563 C284.4969,358 284.5281,357.8125 284.5281,357.3906 L284.5281,355.9688 C284.5281,355.5313 284.5125,355.4063 284.4188,355.25 C284.2625,354.9844 283.9813,354.8438 283.6844,354.8438 C283.3875,354.8438 283.1844,354.9375 282.9656,355.25 L282.7938,355.1719 Z " fill="#000000"/><text fill="#000000" font-family="sans-serif" font-size="14" lengthAdjust="spacing" textLength="103" x="300.55" y="364.3467">CuttingMaster</text><line style="stroke:#181818;stroke-width:0.5;" x1="239" x2="433" y1="375.5" y2="375.5"/><ellipse cx="249" cy="389.1484" fill="none" rx="3" ry="3" style="stroke:#038048;stroke-width:1.0;"/><text fill="#000000" font-family="sans-serif" font-size="14" lengthAdjust="spacing" textLength="93" x="258" y="392.4951">name: String</text><ellipse cx="249" cy="405.4453" fill="none" rx="3" ry="3" style="stroke:#038048;stroke-width:1.0;"/><text fill="#000000" font-family="sans-serif" font-size="14" lengthAdjust="spacing" textLength="121" x="258" y="408.792">user_id: ObjectId</text><ellipse cx="249" cy="421.7422" fill="none" rx="3" ry="3" style="stroke:#038048;stroke-width:1.0;"/><text fill="#000000" font-family="sans-serif" font-size="14" lengthAdjust="spacing" textLength="125" x="258" y="425.0889">advance: Number</text><ellipse cx="249" cy="438.0391" fill="none" rx="3" ry="3" style="stroke:#038048;stroke-width:1.0;"/><text fill="#000000" font-family="sans-serif" font-size="14" lengthAdjust="spacing" textLength="116" x="258" y="441.3857">earned: Number</text><ellipse cx="249" cy="454.3359" fill="none" rx="3" ry="3" style="stroke:#038048;stroke-width:1.0;"/><text fill="#000000" font-family="sans-serif" font-size="14" lengthAdjust="spacing" textLength="155" x="258" y="457.6826">cuttingAmounts: Map</text><ellipse cx="249" cy="470.6328" fill="none" rx="3" ry="3" style="stroke:#038048;stroke-width:1.0;"/><text fill="#000000" font-family="sans-serif" font-size="14" lengthAdjust="spacing" textLength="170" x="258" y="473.9795">aadharnumber: Number</text><ellipse cx="249" cy="486.9297" fill="none" rx="3" ry="3" style="stroke:#038048;stroke-width:1.0;"/><text fill="#000000" font-family="sans-serif" font-size="14" lengthAdjust="spacing" textLength="116" x="258" y="490.2764">work: ObjectId[]</text><line style="stroke:#181818;stroke-width:0.5;" x1="239" x2="433" y1="497.5781" y2="497.5781"/></g><!--class Helper--><g id="elem_Helper"><rect codeLine="40" fill="#F1F1F1" height="129.4844" id="Helper" rx="2.5" ry="2.5" style="stroke:#181818;stroke-width:0.5;" width="196" x="469" y="360"/><ellipse cx="538.75" cy="376" fill="#ADD1B2" rx="11" ry="11" style="stroke:#181818;stroke-width:1.0;"/><path d="M541.0938,371.6719 C540.1563,371.2344 539.5625,371.0938 538.6875,371.0938 C536.0625,371.0938 534.0625,373.1719 534.0625,375.8906 L534.0625,377.0156 C534.0625,379.5938 536.1719,381.4844 539.0625,381.4844 C540.2813,381.4844 541.4375,381.1875 542.1875,380.6406 C542.7656,380.2344 543.0938,379.7813 543.0938,379.3906 C543.0938,378.9375 542.7031,378.5469 542.2344,378.5469 C542.0156,378.5469 541.8125,378.625 541.625,378.8125 C541.1719,379.2969 541.1719,379.2969 540.9844,379.3906 C540.5625,379.6563 539.875,379.7813 539.1094,379.7813 C537.0625,379.7813 535.7656,378.6875 535.7656,376.9844 L535.7656,375.8906 C535.7656,374.1094 537.0156,372.7969 538.75,372.7969 C539.3281,372.7969 539.9375,372.9531 540.4063,373.2031 C540.8906,373.4844 541.0625,373.7031 541.1563,374.1094 C541.2188,374.5156 541.25,374.6406 541.3906,374.7656 C541.5313,374.9063 541.7656,375.0156 541.9844,375.0156 C542.25,375.0156 542.5156,374.875 542.6875,374.6563 C542.7969,374.5 542.8281,374.3125 542.8281,373.8906 L542.8281,372.4688 C542.8281,372.0313 542.8125,371.9063 542.7188,371.75 C542.5625,371.4844 542.2813,371.3438 541.9844,371.3438 C541.6875,371.3438 541.4844,371.4375 541.2656,371.75 L541.0938,371.6719 Z " fill="#000000"/><text fill="#000000" font-family="sans-serif" font-size="14" lengthAdjust="spacing" textLength="48" x="559.25" y="380.8467">Helper</text><line style="stroke:#181818;stroke-width:0.5;" x1="470" x2="664" y1="392" y2="392"/><ellipse cx="480" cy="405.6484" fill="none" rx="3" ry="3" style="stroke:#038048;stroke-width:1.0;"/><text fill="#000000" font-family="sans-serif" font-size="14" lengthAdjust="spacing" textLength="93" x="489" y="408.9951">name: String</text><ellipse cx="480" cy="421.9453" fill="none" rx="3" ry="3" style="stroke:#038048;stroke-width:1.0;"/><text fill="#000000" font-family="sans-serif" font-size="14" lengthAdjust="spacing" textLength="121" x="489" y="425.292">user_id: ObjectId</text><ellipse cx="480" cy="438.2422" fill="none" rx="3" ry="3" style="stroke:#038048;stroke-width:1.0;"/><text fill="#000000" font-family="sans-serif" font-size="14" lengthAdjust="spacing" textLength="126" x="489" y="441.5889">monthly: Number</text><ellipse cx="480" cy="454.5391" fill="none" rx="3" ry="3" style="stroke:#038048;stroke-width:1.0;"/><text fill="#000000" font-family="sans-serif" font-size="14" lengthAdjust="spacing" textLength="170" x="489" y="457.8857">aadharnumber: Number</text><ellipse cx="480" cy="470.8359" fill="none" rx="3" ry="3" style="stroke:#038048;stroke-width:1.0;"/><text fill="#000000" font-family="sans-serif" font-size="14" lengthAdjust="spacing" textLength="125" x="489" y="474.1826">advance: Number</text><line style="stroke:#181818;stroke-width:0.5;" x1="470" x2="664" y1="481.4844" y2="481.4844"/></g><!--class Customer--><g id="elem_Customer"><rect codeLine="48" fill="#F1F1F1" height="129.4844" id="Customer" rx="2.5" ry="2.5" style="stroke:#181818;stroke-width:0.5;" width="214" x="700" y="360"/><ellipse cx="767.75" cy="376" fill="#ADD1B2" rx="11" ry="11" style="stroke:#181818;stroke-width:1.0;"/><path d="M770.0938,371.6719 C769.1563,371.2344 768.5625,371.0938 767.6875,371.0938 C765.0625,371.0938 763.0625,373.1719 763.0625,375.8906 L763.0625,377.0156 C763.0625,379.5938 765.1719,381.4844 768.0625,381.4844 C769.2813,381.4844 770.4375,381.1875 771.1875,380.6406 C771.7656,380.2344 772.0938,379.7813 772.0938,379.3906 C772.0938,378.9375 771.7031,378.5469 771.2344,378.5469 C771.0156,378.5469 770.8125,378.625 770.625,378.8125 C770.1719,379.2969 770.1719,379.2969 769.9844,379.3906 C769.5625,379.6563 768.875,379.7813 768.1094,379.7813 C766.0625,379.7813 764.7656,378.6875 764.7656,376.9844 L764.7656,375.8906 C764.7656,374.1094 766.0156,372.7969 767.75,372.7969 C768.3281,372.7969 768.9375,372.9531 769.4063,373.2031 C769.8906,373.4844 770.0625,373.7031 770.1563,374.1094 C770.2188,374.5156 770.25,374.6406 770.3906,374.7656 C770.5313,374.9063 770.7656,375.0156 770.9844,375.0156 C771.25,375.0156 771.5156,374.875 771.6875,374.6563 C771.7969,374.5 771.8281,374.3125 771.8281,373.8906 L771.8281,372.4688 C771.8281,372.0313 771.8125,371.9063 771.7188,371.75 C771.5625,371.4844 771.2813,371.3438 770.9844,371.3438 C770.6875,371.3438 770.4844,371.4375 770.2656,371.75 L770.0938,371.6719 Z " fill="#000000"/><text fill="#000000" font-family="sans-serif" font-size="14" lengthAdjust="spacing" textLength="70" x="788.25" y="380.8467">Customer</text><line style="stroke:#181818;stroke-width:0.5;" x1="701" x2="913" y1="392" y2="392"/><ellipse cx="711" cy="405.6484" fill="none" rx="3" ry="3" style="stroke:#038048;stroke-width:1.0;"/><text fill="#000000" font-family="sans-serif" font-size="14" lengthAdjust="spacing" textLength="93" x="720" y="408.9951">name: String</text><ellipse cx="711" cy="421.9453" fill="none" rx="3" ry="3" style="stroke:#038048;stroke-width:1.0;"/><text fill="#000000" font-family="sans-serif" font-size="14" lengthAdjust="spacing" textLength="121" x="720" y="425.292">user_id: ObjectId</text><ellipse cx="711" cy="438.2422" fill="none" rx="3" ry="3" style="stroke:#038048;stroke-width:1.0;"/><text fill="#000000" font-family="sans-serif" font-size="14" lengthAdjust="spacing" textLength="177" x="720" y="441.5889">purchasedBill: ObjectId[]</text><ellipse cx="711" cy="454.5391" fill="none" rx="3" ry="3" style="stroke:#038048;stroke-width:1.0;"/><text fill="#000000" font-family="sans-serif" font-size="14" lengthAdjust="spacing" textLength="163" x="720" y="457.8857">stitchedBill: ObjectId[]</text><ellipse cx="711" cy="470.8359" fill="none" rx="3" ry="3" style="stroke:#038048;stroke-width:1.0;"/><text fill="#000000" font-family="sans-serif" font-size="14" lengthAdjust="spacing" textLength="188" x="720" y="474.1826">measurements: ObjectId[]</text><line style="stroke:#181818;stroke-width:0.5;" x1="701" x2="913" y1="481.4844" y2="481.4844"/></g><!--class Clothing--><g id="elem_Clothing"><rect codeLine="56" fill="#F1F1F1" height="129.4844" id="Clothing" rx="2.5" ry="2.5" style="stroke:#181818;stroke-width:0.5;" width="257" x="618.5" y="64.5"/><ellipse cx="712.25" cy="80.5" fill="#ADD1B2" rx="11" ry="11" style="stroke:#181818;stroke-width:1.0;"/><path d="M714.5938,76.1719 C713.6563,75.7344 713.0625,75.5938 712.1875,75.5938 C709.5625,75.5938 707.5625,77.6719 707.5625,80.3906 L707.5625,81.5156 C707.5625,84.0938 709.6719,85.9844 712.5625,85.9844 C713.7813,85.9844 714.9375,85.6875 715.6875,85.1406 C716.2656,84.7344 716.5938,84.2813 716.5938,83.8906 C716.5938,83.4375 716.2031,83.0469 715.7344,83.0469 C715.5156,83.0469 715.3125,83.125 715.125,83.3125 C714.6719,83.7969 714.6719,83.7969 714.4844,83.8906 C714.0625,84.1563 713.375,84.2813 712.6094,84.2813 C710.5625,84.2813 709.2656,83.1875 709.2656,81.4844 L709.2656,80.3906 C709.2656,78.6094 710.5156,77.2969 712.25,77.2969 C712.8281,77.2969 713.4375,77.4531 713.9063,77.7031 C714.3906,77.9844 714.5625,78.2031 714.6563,78.6094 C714.7188,79.0156 714.75,79.1406 714.8906,79.2656 C715.0313,79.4063 715.2656,79.5156 715.4844,79.5156 C715.75,79.5156 716.0156,79.375 716.1875,79.1563 C716.2969,79 716.3281,78.8125 716.3281,78.3906 L716.3281,76.9688 C716.3281,76.5313 716.3125,76.4063 716.2188,76.25 C716.0625,75.9844 715.7813,75.8438 715.4844,75.8438 C715.1875,75.8438 714.9844,75.9375 714.7656,76.25 L714.5938,76.1719 Z " fill="#000000"/><text fill="#000000" font-family="sans-serif" font-size="14" lengthAdjust="spacing" textLength="61" x="732.75" y="85.3467">Clothing</text><line style="stroke:#181818;stroke-width:0.5;" x1="619.5" x2="874.5" y1="96.5" y2="96.5"/><ellipse cx="629.5" cy="110.1484" fill="none" rx="3" ry="3" style="stroke:#038048;stroke-width:1.0;"/><text fill="#000000" font-family="sans-serif" font-size="14" lengthAdjust="spacing" textLength="93" x="638.5" y="113.4951">name: String</text><ellipse cx="629.5" cy="126.4453" fill="none" rx="3" ry="3" style="stroke:#038048;stroke-width:1.0;"/><text fill="#000000" font-family="sans-serif" font-size="14" lengthAdjust="spacing" textLength="231" x="638.5" y="129.792">stitchingAmtCustomer: Number</text><ellipse cx="629.5" cy="142.7422" fill="none" rx="3" ry="3" style="stroke:#038048;stroke-width:1.0;"/><text fill="#000000" font-family="sans-serif" font-size="14" lengthAdjust="spacing" textLength="201" x="638.5" y="146.0889">stitchingAmtTailor: Number</text><ellipse cx="629.5" cy="159.0391" fill="none" rx="3" ry="3" style="stroke:#038048;stroke-width:1.0;"/><text fill="#000000" font-family="sans-serif" font-size="14" lengthAdjust="spacing" textLength="149" x="638.5" y="162.3857">cuttingAmt: Number</text><ellipse cx="629.5" cy="175.3359" fill="none" rx="3" ry="3" style="stroke:#038048;stroke-width:1.0;"/><text fill="#000000" font-family="sans-serif" font-size="14" lengthAdjust="spacing" textLength="170" x="638.5" y="178.6826">measurements: String[]</text><line style="stroke:#181818;stroke-width:0.5;" x1="619.5" x2="874.5" y1="185.9844" y2="185.9844"/></g><!--class Measurement--><g id="elem_Measurement"><rect codeLine="64" fill="#F1F1F1" height="113.1875" id="Measurement" rx="2.5" ry="2.5" style="stroke:#181818;stroke-width:0.5;" width="431" x="232.5" y="671.5"/><ellipse cx="394.75" cy="687.5" fill="#ADD1B2" rx="11" ry="11" style="stroke:#181818;stroke-width:1.0;"/><path d="M397.0938,683.1719 C396.1563,682.7344 395.5625,682.5938 394.6875,682.5938 C392.0625,682.5938 390.0625,684.6719 390.0625,687.3906 L390.0625,688.5156 C390.0625,691.0938 392.1719,692.9844 395.0625,692.9844 C396.2813,692.9844 397.4375,692.6875 398.1875,692.1406 C398.7656,691.7344 399.0938,691.2813 399.0938,690.8906 C399.0938,690.4375 398.7031,690.0469 398.2344,690.0469 C398.0156,690.0469 397.8125,690.125 397.625,690.3125 C397.1719,690.7969 397.1719,690.7969 396.9844,690.8906 C396.5625,691.1563 395.875,691.2813 395.1094,691.2813 C393.0625,691.2813 391.7656,690.1875 391.7656,688.4844 L391.7656,687.3906 C391.7656,685.6094 393.0156,684.2969 394.75,684.2969 C395.3281,684.2969 395.9375,684.4531 396.4063,684.7031 C396.8906,684.9844 397.0625,685.2031 397.1563,685.6094 C397.2188,686.0156 397.25,686.1406 397.3906,686.2656 C397.5313,686.4063 397.7656,686.5156 397.9844,686.5156 C398.25,686.5156 398.5156,686.375 398.6875,686.1563 C398.7969,686 398.8281,685.8125 398.8281,685.3906 L398.8281,683.9688 C398.8281,683.5313 398.8125,683.4063 398.7188,683.25 C398.5625,682.9844 398.2813,682.8438 397.9844,682.8438 C397.6875,682.8438 397.4844,682.9375 397.2656,683.25 L397.0938,683.1719 Z " fill="#000000"/><text fill="#000000" font-family="sans-serif" font-size="14" lengthAdjust="spacing" textLength="98" x="415.25" y="692.3467">Measurement</text><line style="stroke:#181818;stroke-width:0.5;" x1="233.5" x2="662.5" y1="703.5" y2="703.5"/><ellipse cx="243.5" cy="717.1484" fill="none" rx="3" ry="3" style="stroke:#038048;stroke-width:1.0;"/><text fill="#000000" font-family="sans-serif" font-size="14" lengthAdjust="spacing" textLength="93" x="252.5" y="720.4951">name: String</text><ellipse cx="243.5" cy="733.4453" fill="none" rx="3" ry="3" style="stroke:#038048;stroke-width:1.0;"/><text fill="#000000" font-family="sans-serif" font-size="14" lengthAdjust="spacing" textLength="159" x="252.5" y="736.792">customer_id: ObjectId</text><ellipse cx="243.5" cy="749.7422" fill="none" rx="3" ry="3" style="stroke:#038048;stroke-width:1.0;"/><text fill="#000000" font-family="sans-serif" font-size="14" lengthAdjust="spacing" textLength="146" x="252.5" y="753.0889">measurements: Map</text><ellipse cx="243.5" cy="766.0391" fill="none" rx="3" ry="3" style="stroke:#038048;stroke-width:1.0;"/><text fill="#000000" font-family="sans-serif" font-size="14" lengthAdjust="spacing" textLength="405" x="252.5" y="769.3857">customerRequirements: { name: String, value: String }[]</text><line style="stroke:#181818;stroke-width:0.5;" x1="233.5" x2="662.5" y1="776.6875" y2="776.6875"/></g><!--class MeasurementHistory--><g id="elem_MeasurementHistory"><rect codeLine="71" fill="#F1F1F1" height="80.5938" id="MeasurementHistory" rx="2.5" ry="2.5" style="stroke:#181818;stroke-width:0.5;" width="217" x="698.5" y="687.5"/><ellipse cx="729.7" cy="703.5" fill="#ADD1B2" rx="11" ry="11" style="stroke:#181818;stroke-width:1.0;"/><path d="M732.0438,699.1719 C731.1063,698.7344 730.5125,698.5938 729.6375,698.5938 C727.0125,698.5938 725.0125,700.6719 725.0125,703.3906 L725.0125,704.5156 C725.0125,707.0938 727.1219,708.9844 730.0125,708.9844 C731.2313,708.9844 732.3875,708.6875 733.1375,708.1406 C733.7156,707.7344 734.0438,707.2813 734.0438,706.8906 C734.0438,706.4375 733.6531,706.0469 733.1844,706.0469 C732.9656,706.0469 732.7625,706.125 732.575,706.3125 C732.1219,706.7969 732.1219,706.7969 731.9344,706.8906 C731.5125,707.1563 730.825,707.2813 730.0594,707.2813 C728.0125,707.2813 726.7156,706.1875 726.7156,704.4844 L726.7156,703.3906 C726.7156,701.6094 727.9656,700.2969 729.7,700.2969 C730.2781,700.2969 730.8875,700.4531 731.3563,700.7031 C731.8406,700.9844 732.0125,701.2031 732.1063,701.6094 C732.1688,702.0156 732.2,702.1406 732.3406,702.2656 C732.4813,702.4063 732.7156,702.5156 732.9344,702.5156 C733.2,702.5156 733.4656,702.375 733.6375,702.1563 C733.7469,702 733.7781,701.8125 733.7781,701.3906 L733.7781,699.9688 C733.7781,699.5313 733.7625,699.4063 733.6688,699.25 C733.5125,698.9844 733.2313,698.8438 732.9344,698.8438 C732.6375,698.8438 732.4344,698.9375 732.2156,699.25 L732.0438,699.1719 Z " fill="#000000"/><text fill="#000000" font-family="sans-serif" font-size="14" lengthAdjust="spacing" textLength="149" x="747.3" y="708.3467">MeasurementHistory</text><line style="stroke:#181818;stroke-width:0.5;" x1="699.5" x2="914.5" y1="719.5" y2="719.5"/><ellipse cx="709.5" cy="733.1484" fill="none" rx="3" ry="3" style="stroke:#038048;stroke-width:1.0;"/><text fill="#000000" font-family="sans-serif" font-size="14" lengthAdjust="spacing" textLength="191" x="718.5" y="736.4951">measurement_id: ObjectId</text><ellipse cx="709.5" cy="749.4453" fill="none" rx="3" ry="3" style="stroke:#038048;stroke-width:1.0;"/><text fill="#000000" font-family="sans-serif" font-size="14" lengthAdjust="spacing" textLength="159" x="718.5" y="752.792">customer_id: ObjectId</text><line style="stroke:#181818;stroke-width:0.5;" x1="699.5" x2="914.5" y1="760.0938" y2="760.0938"/></g><!--class SoldBill--><g id="elem_SoldBill"><rect codeLine="76" fill="#F1F1F1" height="145.7813" id="SoldBill" rx="2.5" ry="2.5" style="stroke:#181818;stroke-width:0.5;" width="195" x="950.5" y="655"/><ellipse cx="1017.25" cy="671" fill="#ADD1B2" rx="11" ry="11" style="stroke:#181818;stroke-width:1.0;"/><path d="M1019.5938,666.6719 C1018.6563,666.2344 1018.0625,666.0938 1017.1875,666.0938 C1014.5625,666.0938 1012.5625,668.1719 1012.5625,670.8906 L1012.5625,672.0156 C1012.5625,674.5938 1014.6719,676.4844 1017.5625,676.4844 C1018.7813,676.4844 1019.9375,676.1875 1020.6875,675.6406 C1021.2656,675.2344 1021.5938,674.7813 1021.5938,674.3906 C1021.5938,673.9375 1021.2031,673.5469 1020.7344,673.5469 C1020.5156,673.5469 1020.3125,673.625 1020.125,673.8125 C1019.6719,674.2969 1019.6719,674.2969 1019.4844,674.3906 C1019.0625,674.6563 1018.375,674.7813 1017.6094,674.7813 C1015.5625,674.7813 1014.2656,673.6875 1014.2656,671.9844 L1014.2656,670.8906 C1014.2656,669.1094 1015.5156,667.7969 1017.25,667.7969 C1017.8281,667.7969 1018.4375,667.9531 1018.9063,668.2031 C1019.3906,668.4844 1019.5625,668.7031 1019.6563,669.1094 C1019.7188,669.5156 1019.75,669.6406 1019.8906,669.7656 C1020.0313,669.9063 1020.2656,670.0156 1020.4844,670.0156 C1020.75,670.0156 1021.0156,669.875 1021.1875,669.6563 C1021.2969,669.5 1021.3281,669.3125 1021.3281,668.8906 L1021.3281,667.4688 C1021.3281,667.0313 1021.3125,666.9063 1021.2188,666.75 C1021.0625,666.4844 1020.7813,666.3438 1020.4844,666.3438 C1020.1875,666.3438 1019.9844,666.4375 1019.7656,666.75 L1019.5938,666.6719 Z " fill="#000000"/><text fill="#000000" font-family="sans-serif" font-size="14" lengthAdjust="spacing" textLength="53" x="1037.75" y="675.8467">SoldBill</text><line style="stroke:#181818;stroke-width:0.5;" x1="951.5" x2="1144.5" y1="687" y2="687"/><ellipse cx="961.5" cy="700.6484" fill="none" rx="3" ry="3" style="stroke:#038048;stroke-width:1.0;"/><text fill="#000000" font-family="sans-serif" font-size="14" lengthAdjust="spacing" textLength="93" x="970.5" y="703.9951">name: String</text><ellipse cx="961.5" cy="716.9453" fill="none" rx="3" ry="3" style="stroke:#038048;stroke-width:1.0;"/><text fill="#000000" font-family="sans-serif" font-size="14" lengthAdjust="spacing" textLength="121" x="970.5" y="720.292">user_id: ObjectId</text><ellipse cx="961.5" cy="733.2422" fill="none" rx="3" ry="3" style="stroke:#038048;stroke-width:1.0;"/><text fill="#000000" font-family="sans-serif" font-size="14" lengthAdjust="spacing" textLength="159" x="970.5" y="736.5889">customer_id: ObjectId</text><ellipse cx="961.5" cy="749.5391" fill="none" rx="3" ry="3" style="stroke:#038048;stroke-width:1.0;"/><text fill="#000000" font-family="sans-serif" font-size="14" lengthAdjust="spacing" textLength="145" x="970.5" y="752.8857">billNumber: Number</text><ellipse cx="961.5" cy="765.8359" fill="none" rx="3" ry="3" style="stroke:#038048;stroke-width:1.0;"/><text fill="#000000" font-family="sans-serif" font-size="14" lengthAdjust="spacing" textLength="169" x="970.5" y="769.1826">phoneNumber: Number</text><ellipse cx="961.5" cy="782.1328" fill="none" rx="3" ry="3" style="stroke:#038048;stroke-width:1.0;"/><text fill="#000000" font-family="sans-serif" font-size="14" lengthAdjust="spacing" textLength="132" x="970.5" y="785.4795">totalAmt: Number</text><line style="stroke:#181818;stroke-width:0.5;" x1="951.5" x2="1144.5" y1="792.7813" y2="792.7813"/></g><!--class StitchBill--><g id="elem_StitchBill"><rect codeLine="85" fill="#F1F1F1" height="259.8594" id="StitchBill" rx="2.5" ry="2.5" style="stroke:#181818;stroke-width:0.5;" width="195" x="1180.5" y="598"/><ellipse cx="1240.75" cy="614" fill="#ADD1B2" rx="11" ry="11" style="stroke:#181818;stroke-width:1.0;"/><path d="M1243.0938,609.6719 C1242.1563,609.2344 1241.5625,609.0938 1240.6875,609.0938 C1238.0625,609.0938 1236.0625,611.1719 1236.0625,613.8906 L1236.0625,615.0156 C1236.0625,617.5938 1238.1719,619.4844 1241.0625,619.4844 C1242.2813,619.4844 1243.4375,619.1875 1244.1875,618.6406 C1244.7656,618.2344 1245.0938,617.7813 1245.0938,617.3906 C1245.0938,616.9375 1244.7031,616.5469 1244.2344,616.5469 C1244.0156,616.5469 1243.8125,616.625 1243.625,616.8125 C1243.1719,617.2969 1243.1719,617.2969 1242.9844,617.3906 C1242.5625,617.6563 1241.875,617.7813 1241.1094,617.7813 C1239.0625,617.7813 1237.7656,616.6875 1237.7656,614.9844 L1237.7656,613.8906 C1237.7656,612.1094 1239.0156,610.7969 1240.75,610.7969 C1241.3281,610.7969 1241.9375,610.9531 1242.4063,611.2031 C1242.8906,611.4844 1243.0625,611.7031 1243.1563,612.1094 C1243.2188,612.5156 1243.25,612.6406 1243.3906,612.7656 C1243.5313,612.9063 1243.7656,613.0156 1243.9844,613.0156 C1244.25,613.0156 1244.5156,612.875 1244.6875,612.6563 C1244.7969,612.5 1244.8281,612.3125 1244.8281,611.8906 L1244.8281,610.4688 C1244.8281,610.0313 1244.8125,609.9063 1244.7188,609.75 C1244.5625,609.4844 1244.2813,609.3438 1243.9844,609.3438 C1243.6875,609.3438 1243.4844,609.4375 1243.2656,609.75 L1243.0938,609.6719 Z " fill="#000000"/><text fill="#000000" font-family="sans-serif" font-size="14" lengthAdjust="spacing" textLength="66" x="1261.25" y="618.8467">StitchBill</text><line style="stroke:#181818;stroke-width:0.5;" x1="1181.5" x2="1374.5" y1="630" y2="630"/><ellipse cx="1191.5" cy="643.6484" fill="none" rx="3" ry="3" style="stroke:#038048;stroke-width:1.0;"/><text fill="#000000" font-family="sans-serif" font-size="14" lengthAdjust="spacing" textLength="93" x="1200.5" y="646.9951">name: String</text><ellipse cx="1191.5" cy="659.9453" fill="none" rx="3" ry="3" style="stroke:#038048;stroke-width:1.0;"/><text fill="#000000" font-family="sans-serif" font-size="14" lengthAdjust="spacing" textLength="121" x="1200.5" y="663.292">user_id: ObjectId</text><ellipse cx="1191.5" cy="676.2422" fill="none" rx="3" ry="3" style="stroke:#038048;stroke-width:1.0;"/><text fill="#000000" font-family="sans-serif" font-size="14" lengthAdjust="spacing" textLength="159" x="1200.5" y="679.5889">customer_id: ObjectId</text><ellipse cx="1191.5" cy="692.5391" fill="none" rx="3" ry="3" style="stroke:#038048;stroke-width:1.0;"/><text fill="#000000" font-family="sans-serif" font-size="14" lengthAdjust="spacing" textLength="145" x="1200.5" y="695.8857">billNumber: Number</text><ellipse cx="1191.5" cy="708.8359" fill="none" rx="3" ry="3" style="stroke:#038048;stroke-width:1.0;"/><text fill="#000000" font-family="sans-serif" font-size="14" lengthAdjust="spacing" textLength="169" x="1200.5" y="712.1826">phoneNumber: Number</text><ellipse cx="1191.5" cy="725.1328" fill="none" rx="3" ry="3" style="stroke:#038048;stroke-width:1.0;"/><text fill="#000000" font-family="sans-serif" font-size="14" lengthAdjust="spacing" textLength="136" x="1200.5" y="728.4795">deliveryDate: Date</text><ellipse cx="1191.5" cy="741.4297" fill="none" rx="3" ry="3" style="stroke:#038048;stroke-width:1.0;"/><text fill="#000000" font-family="sans-serif" font-size="14" lengthAdjust="spacing" textLength="134" x="1200.5" y="744.7764">clothAmt: Number</text><ellipse cx="1191.5" cy="757.7266" fill="none" rx="3" ry="3" style="stroke:#038048;stroke-width:1.0;"/><text fill="#000000" font-family="sans-serif" font-size="14" lengthAdjust="spacing" textLength="155" x="1200.5" y="761.0732">clothes: StitchCloth[]</text><ellipse cx="1191.5" cy="774.0234" fill="none" rx="3" ry="3" style="stroke:#038048;stroke-width:1.0;"/><text fill="#000000" font-family="sans-serif" font-size="14" lengthAdjust="spacing" textLength="128" x="1200.5" y="777.3701">subTotal: Number</text><ellipse cx="1191.5" cy="790.3203" fill="none" rx="3" ry="3" style="stroke:#038048;stroke-width:1.0;"/><text fill="#000000" font-family="sans-serif" font-size="14" lengthAdjust="spacing" textLength="156" x="1200.5" y="793.667">advanceAmt: Number</text><ellipse cx="1191.5" cy="806.6172" fill="none" rx="3" ry="3" style="stroke:#038048;stroke-width:1.0;"/><text fill="#000000" font-family="sans-serif" font-size="14" lengthAdjust="spacing" textLength="128" x="1200.5" y="809.9639">finalAmt: Number</text><ellipse cx="1191.5" cy="822.9141" fill="none" rx="3" ry="3" style="stroke:#038048;stroke-width:1.0;"/><text fill="#000000" font-family="sans-serif" font-size="14" lengthAdjust="spacing" textLength="108" x="1200.5" y="826.2607">isPaid: Boolean</text><ellipse cx="1191.5" cy="839.2109" fill="none" rx="3" ry="3" style="stroke:#038048;stroke-width:1.0;"/><text fill="#000000" font-family="sans-serif" font-size="14" lengthAdjust="spacing" textLength="132" x="1200.5" y="842.5576">totalAmt: Number</text><line style="stroke:#181818;stroke-width:0.5;" x1="1181.5" x2="1374.5" y1="849.8594" y2="849.8594"/></g><!--class MonthlyData--><g id="elem_MonthlyData"><rect codeLine="101" fill="#F1F1F1" height="210.9688" id="MonthlyData" rx="2.5" ry="2.5" style="stroke:#181818;stroke-width:0.5;" width="199" x="949.5" y="319"/><ellipse cx="998.75" cy="335" fill="#ADD1B2" rx="11" ry="11" style="stroke:#181818;stroke-width:1.0;"/><path d="M1001.0938,330.6719 C1000.1563,330.2344 999.5625,330.0938 998.6875,330.0938 C996.0625,330.0938 994.0625,332.1719 994.0625,334.8906 L994.0625,336.0156 C994.0625,338.5938 996.1719,340.4844 999.0625,340.4844 C1000.2813,340.4844 1001.4375,340.1875 1002.1875,339.6406 C1002.7656,339.2344 1003.0938,338.7813 1003.0938,338.3906 C1003.0938,337.9375 1002.7031,337.5469 1002.2344,337.5469 C1002.0156,337.5469 1001.8125,337.625 1001.625,337.8125 C1001.1719,338.2969 1001.1719,338.2969 1000.9844,338.3906 C1000.5625,338.6563 999.875,338.7813 999.1094,338.7813 C997.0625,338.7813 995.7656,337.6875 995.7656,335.9844 L995.7656,334.8906 C995.7656,333.1094 997.0156,331.7969 998.75,331.7969 C999.3281,331.7969 999.9375,331.9531 1000.4063,332.2031 C1000.8906,332.4844 1001.0625,332.7031 1001.1563,333.1094 C1001.2188,333.5156 1001.25,333.6406 1001.3906,333.7656 C1001.5313,333.9063 1001.7656,334.0156 1001.9844,334.0156 C1002.25,334.0156 1002.5156,333.875 1002.6875,333.6563 C1002.7969,333.5 1002.8281,333.3125 1002.8281,332.8906 L1002.8281,331.4688 C1002.8281,331.0313 1002.8125,330.9063 1002.7188,330.75 C1002.5625,330.4844 1002.2813,330.3438 1001.9844,330.3438 C1001.6875,330.3438 1001.4844,330.4375 1001.2656,330.75 L1001.0938,330.6719 Z " fill="#000000"/><text fill="#000000" font-family="sans-serif" font-size="14" lengthAdjust="spacing" textLength="92" x="1019.25" y="339.8467">MonthlyData</text><line style="stroke:#181818;stroke-width:0.5;" x1="950.5" x2="1147.5" y1="351" y2="351"/><ellipse cx="960.5" cy="364.6484" fill="none" rx="3" ry="3" style="stroke:#038048;stroke-width:1.0;"/><text fill="#000000" font-family="sans-serif" font-size="14" lengthAdjust="spacing" textLength="101" x="969.5" y="367.9951">month: String</text><ellipse cx="960.5" cy="380.9453" fill="none" rx="3" ry="3" style="stroke:#038048;stroke-width:1.0;"/><text fill="#000000" font-family="sans-serif" font-size="14" lengthAdjust="spacing" textLength="119" x="969.5" y="384.292">income: Number</text><ellipse cx="960.5" cy="397.2422" fill="none" rx="3" ry="3" style="stroke:#038048;stroke-width:1.0;"/><text fill="#000000" font-family="sans-serif" font-size="14" lengthAdjust="spacing" textLength="107" x="969.5" y="400.5889">salary: Number</text><ellipse cx="960.5" cy="413.5391" fill="none" rx="3" ry="3" style="stroke:#038048;stroke-width:1.0;"/><text fill="#000000" font-family="sans-serif" font-size="14" lengthAdjust="spacing" textLength="108" x="969.5" y="416.8857">profit: Number</text><ellipse cx="960.5" cy="429.8359" fill="none" rx="3" ry="3" style="stroke:#038048;stroke-width:1.0;"/><text fill="#000000" font-family="sans-serif" font-size="14" lengthAdjust="spacing" textLength="141" x="969.5" y="433.1826">customers: Number</text><ellipse cx="960.5" cy="446.1328" fill="none" rx="3" ry="3" style="stroke:#038048;stroke-width:1.0;"/><text fill="#000000" font-family="sans-serif" font-size="14" lengthAdjust="spacing" textLength="172" x="969.5" y="449.4795">newCustomers: Number</text><ellipse cx="960.5" cy="462.4297" fill="none" rx="3" ry="3" style="stroke:#038048;stroke-width:1.0;"/><text fill="#000000" font-family="sans-serif" font-size="14" lengthAdjust="spacing" textLength="101" x="969.5" y="465.7764">sales: Number</text><ellipse cx="960.5" cy="478.7266" fill="none" rx="3" ry="3" style="stroke:#038048;stroke-width:1.0;"/><text fill="#000000" font-family="sans-serif" font-size="14" lengthAdjust="spacing" textLength="166" x="969.5" y="482.0732">salesBillCount: Number</text><ellipse cx="960.5" cy="495.0234" fill="none" rx="3" ry="3" style="stroke:#038048;stroke-width:1.0;"/><text fill="#000000" font-family="sans-serif" font-size="14" lengthAdjust="spacing" textLength="108" x="969.5" y="498.3701">stitch: Number</text><ellipse cx="960.5" cy="511.3203" fill="none" rx="3" ry="3" style="stroke:#038048;stroke-width:1.0;"/><text fill="#000000" font-family="sans-serif" font-size="14" lengthAdjust="spacing" textLength="173" x="969.5" y="514.667">stitchBillCount: Number</text><line style="stroke:#181818;stroke-width:0.5;" x1="950.5" x2="1147.5" y1="521.9688" y2="521.9688"/></g><!--class DailyData--><g id="elem_DailyData"><rect codeLine="114" fill="#F1F1F1" height="227.2656" id="DailyData" rx="2.5" ry="2.5" style="stroke:#181818;stroke-width:0.5;" width="199" x="1183.5" y="311"/><ellipse cx="1244.25" cy="327" fill="#ADD1B2" rx="11" ry="11" style="stroke:#181818;stroke-width:1.0;"/><path d="M1246.5938,322.6719 C1245.6563,322.2344 1245.0625,322.0938 1244.1875,322.0938 C1241.5625,322.0938 1239.5625,324.1719 1239.5625,326.8906 L1239.5625,328.0156 C1239.5625,330.5938 1241.6719,332.4844 1244.5625,332.4844 C1245.7813,332.4844 1246.9375,332.1875 1247.6875,331.6406 C1248.2656,331.2344 1248.5938,330.7813 1248.5938,330.3906 C1248.5938,329.9375 1248.2031,329.5469 1247.7344,329.5469 C1247.5156,329.5469 1247.3125,329.625 1247.125,329.8125 C1246.6719,330.2969 1246.6719,330.2969 1246.4844,330.3906 C1246.0625,330.6563 1245.375,330.7813 1244.6094,330.7813 C1242.5625,330.7813 1241.2656,329.6875 1241.2656,327.9844 L1241.2656,326.8906 C1241.2656,325.1094 1242.5156,323.7969 1244.25,323.7969 C1244.8281,323.7969 1245.4375,323.9531 1245.9063,324.2031 C1246.3906,324.4844 1246.5625,324.7031 1246.6563,325.1094 C1246.7188,325.5156 1246.75,325.6406 1246.8906,325.7656 C1247.0313,325.9063 1247.2656,326.0156 1247.4844,326.0156 C1247.75,326.0156 1248.0156,325.875 1248.1875,325.6563 C1248.2969,325.5 1248.3281,325.3125 1248.3281,324.8906 L1248.3281,323.4688 C1248.3281,323.0313 1248.3125,322.9063 1248.2188,322.75 C1248.0625,322.4844 1247.7813,322.3438 1247.4844,322.3438 C1247.1875,322.3438 1246.9844,322.4375 1246.7656,322.75 L1246.5938,322.6719 Z " fill="#000000"/><text fill="#000000" font-family="sans-serif" font-size="14" lengthAdjust="spacing" textLength="69" x="1264.75" y="331.8467">DailyData</text><line style="stroke:#181818;stroke-width:0.5;" x1="1184.5" x2="1381.5" y1="343" y2="343"/><ellipse cx="1194.5" cy="356.6484" fill="none" rx="3" ry="3" style="stroke:#038048;stroke-width:1.0;"/><text fill="#000000" font-family="sans-serif" font-size="14" lengthAdjust="spacing" textLength="101" x="1203.5" y="359.9951">month: String</text><ellipse cx="1194.5" cy="372.9453" fill="none" rx="3" ry="3" style="stroke:#038048;stroke-width:1.0;"/><text fill="#000000" font-family="sans-serif" font-size="14" lengthAdjust="spacing" textLength="119" x="1203.5" y="376.292">income: Number</text><ellipse cx="1194.5" cy="389.2422" fill="none" rx="3" ry="3" style="stroke:#038048;stroke-width:1.0;"/><text fill="#000000" font-family="sans-serif" font-size="14" lengthAdjust="spacing" textLength="107" x="1203.5" y="392.5889">salary: Number</text><ellipse cx="1194.5" cy="405.5391" fill="none" rx="3" ry="3" style="stroke:#038048;stroke-width:1.0;"/><text fill="#000000" font-family="sans-serif" font-size="14" lengthAdjust="spacing" textLength="108" x="1203.5" y="408.8857">profit: Number</text><ellipse cx="1194.5" cy="421.8359" fill="none" rx="3" ry="3" style="stroke:#038048;stroke-width:1.0;"/><text fill="#000000" font-family="sans-serif" font-size="14" lengthAdjust="spacing" textLength="141" x="1203.5" y="425.1826">customers: Number</text><ellipse cx="1194.5" cy="438.1328" fill="none" rx="3" ry="3" style="stroke:#038048;stroke-width:1.0;"/><text fill="#000000" font-family="sans-serif" font-size="14" lengthAdjust="spacing" textLength="172" x="1203.5" y="441.4795">newCustomers: Number</text><ellipse cx="1194.5" cy="454.4297" fill="none" rx="3" ry="3" style="stroke:#038048;stroke-width:1.0;"/><text fill="#000000" font-family="sans-serif" font-size="14" lengthAdjust="spacing" textLength="101" x="1203.5" y="457.7764">sales: Number</text><ellipse cx="1194.5" cy="470.7266" fill="none" rx="3" ry="3" style="stroke:#038048;stroke-width:1.0;"/><text fill="#000000" font-family="sans-serif" font-size="14" lengthAdjust="spacing" textLength="166" x="1203.5" y="474.0732">salesBillCount: Number</text><ellipse cx="1194.5" cy="487.0234" fill="none" rx="3" ry="3" style="stroke:#038048;stroke-width:1.0;"/><text fill="#000000" font-family="sans-serif" font-size="14" lengthAdjust="spacing" textLength="108" x="1203.5" y="490.3701">stitch: Number</text><ellipse cx="1194.5" cy="503.3203" fill="none" rx="3" ry="3" style="stroke:#038048;stroke-width:1.0;"/><text fill="#000000" font-family="sans-serif" font-size="14" lengthAdjust="spacing" textLength="173" x="1203.5" y="506.667">stitchBillCount: Number</text><ellipse cx="1194.5" cy="519.6172" fill="none" rx="3" ry="3" style="stroke:#038048;stroke-width:1.0;"/><text fill="#000000" font-family="sans-serif" font-size="14" lengthAdjust="spacing" textLength="86" x="1203.5" y="522.9639">date: String</text><line style="stroke:#181818;stroke-width:0.5;" x1="1184.5" x2="1381.5" y1="530.2656" y2="530.2656"/></g><!--class Analytics--><g id="elem_Analytics"><rect codeLine="128" fill="#F1F1F1" height="243.5625" id="Analytics" rx="2.5" ry="2.5" style="stroke:#181818;stroke-width:0.5;" width="201" x="1065.5" y="7"/><ellipse cx="1129.25" cy="23" fill="#ADD1B2" rx="11" ry="11" style="stroke:#181818;stroke-width:1.0;"/><path d="M1131.5938,18.6719 C1130.6563,18.2344 1130.0625,18.0938 1129.1875,18.0938 C1126.5625,18.0938 1124.5625,20.1719 1124.5625,22.8906 L1124.5625,24.0156 C1124.5625,26.5938 1126.6719,28.4844 1129.5625,28.4844 C1130.7813,28.4844 1131.9375,28.1875 1132.6875,27.6406 C1133.2656,27.2344 1133.5938,26.7813 1133.5938,26.3906 C1133.5938,25.9375 1133.2031,25.5469 1132.7344,25.5469 C1132.5156,25.5469 1132.3125,25.625 1132.125,25.8125 C1131.6719,26.2969 1131.6719,26.2969 1131.4844,26.3906 C1131.0625,26.6563 1130.375,26.7813 1129.6094,26.7813 C1127.5625,26.7813 1126.2656,25.6875 1126.2656,23.9844 L1126.2656,22.8906 C1126.2656,21.1094 1127.5156,19.7969 1129.25,19.7969 C1129.8281,19.7969 1130.4375,19.9531 1130.9063,20.2031 C1131.3906,20.4844 1131.5625,20.7031 1131.6563,21.1094 C1131.7188,21.5156 1131.75,21.6406 1131.8906,21.7656 C1132.0313,21.9063 1132.2656,22.0156 1132.4844,22.0156 C1132.75,22.0156 1133.0156,21.875 1133.1875,21.6563 C1133.2969,21.5 1133.3281,21.3125 1133.3281,20.8906 L1133.3281,19.4688 C1133.3281,19.0313 1133.3125,18.9063 1133.2188,18.75 C1133.0625,18.4844 1132.7813,18.3438 1132.4844,18.3438 C1132.1875,18.3438 1131.9844,18.4375 1131.7656,18.75 L1131.5938,18.6719 Z " fill="#000000"/><text fill="#000000" font-family="sans-serif" font-size="14" lengthAdjust="spacing" textLength="65" x="1149.75" y="27.8467">Analytics</text><line style="stroke:#181818;stroke-width:0.5;" x1="1066.5" x2="1265.5" y1="39" y2="39"/><ellipse cx="1076.5" cy="52.6484" fill="none" rx="3" ry="3" style="stroke:#038048;stroke-width:1.0;"/><text fill="#000000" font-family="sans-serif" font-size="14" lengthAdjust="spacing" textLength="97" x="1085.5" y="55.9951">year: Number</text><ellipse cx="1076.5" cy="68.9453" fill="none" rx="3" ry="3" style="stroke:#038048;stroke-width:1.0;"/><text fill="#000000" font-family="sans-serif" font-size="14" lengthAdjust="spacing" textLength="119" x="1085.5" y="72.292">income: Number</text><ellipse cx="1076.5" cy="85.2422" fill="none" rx="3" ry="3" style="stroke:#038048;stroke-width:1.0;"/><text fill="#000000" font-family="sans-serif" font-size="14" lengthAdjust="spacing" textLength="107" x="1085.5" y="88.5889">salary: Number</text><ellipse cx="1076.5" cy="101.5391" fill="none" rx="3" ry="3" style="stroke:#038048;stroke-width:1.0;"/><text fill="#000000" font-family="sans-serif" font-size="14" lengthAdjust="spacing" textLength="108" x="1085.5" y="104.8857">profit: Number</text><ellipse cx="1076.5" cy="117.8359" fill="none" rx="3" ry="3" style="stroke:#038048;stroke-width:1.0;"/><text fill="#000000" font-family="sans-serif" font-size="14" lengthAdjust="spacing" textLength="141" x="1085.5" y="121.1826">customers: Number</text><ellipse cx="1076.5" cy="134.1328" fill="none" rx="3" ry="3" style="stroke:#038048;stroke-width:1.0;"/><text fill="#000000" font-family="sans-serif" font-size="14" lengthAdjust="spacing" textLength="172" x="1085.5" y="137.4795">newCustomers: Number</text><ellipse cx="1076.5" cy="150.4297" fill="none" rx="3" ry="3" style="stroke:#038048;stroke-width:1.0;"/><text fill="#000000" font-family="sans-serif" font-size="14" lengthAdjust="spacing" textLength="101" x="1085.5" y="153.7764">sales: Number</text><ellipse cx="1076.5" cy="166.7266" fill="none" rx="3" ry="3" style="stroke:#038048;stroke-width:1.0;"/><text fill="#000000" font-family="sans-serif" font-size="14" lengthAdjust="spacing" textLength="166" x="1085.5" y="170.0732">salesBillCount: Number</text><ellipse cx="1076.5" cy="183.0234" fill="none" rx="3" ry="3" style="stroke:#038048;stroke-width:1.0;"/><text fill="#000000" font-family="sans-serif" font-size="14" lengthAdjust="spacing" textLength="108" x="1085.5" y="186.3701">stitch: Number</text><ellipse cx="1076.5" cy="199.3203" fill="none" rx="3" ry="3" style="stroke:#038048;stroke-width:1.0;"/><text fill="#000000" font-family="sans-serif" font-size="14" lengthAdjust="spacing" textLength="173" x="1085.5" y="202.667">stitchBillCount: Number</text><ellipse cx="1076.5" cy="215.6172" fill="none" rx="3" ry="3" style="stroke:#038048;stroke-width:1.0;"/><text fill="#000000" font-family="sans-serif" font-size="14" lengthAdjust="spacing" textLength="175" x="1085.5" y="218.9639">monthlyData: ObjectId[]</text><ellipse cx="1076.5" cy="231.9141" fill="none" rx="3" ry="3" style="stroke:#038048;stroke-width:1.0;"/><text fill="#000000" font-family="sans-serif" font-size="14" lengthAdjust="spacing" textLength="148" x="1085.5" y="235.2607">dailyData: ObjectId[]</text><line style="stroke:#181818;stroke-width:0.5;" x1="1066.5" x2="1265.5" y1="242.5625" y2="242.5625"/></g><!--class BillNumberCounter--><g id="elem_BillNumberCounter"><rect codeLine="143" fill="#F1F1F1" height="64.2969" id="BillNumberCounter" rx="2.5" ry="2.5" style="stroke:#181818;stroke-width:0.5;" width="171" x="1301.5" y="97"/><ellipse cx="1317.4" cy="113" fill="#ADD1B2" rx="11" ry="11" style="stroke:#181818;stroke-width:1.0;"/><path d="M1319.7438,108.6719 C1318.8063,108.2344 1318.2125,108.0938 1317.3375,108.0938 C1314.7125,108.0938 1312.7125,110.1719 1312.7125,112.8906 L1312.7125,114.0156 C1312.7125,116.5938 1314.8219,118.4844 1317.7125,118.4844 C1318.9313,118.4844 1320.0875,118.1875 1320.8375,117.6406 C1321.4156,117.2344 1321.7438,116.7813 1321.7438,116.3906 C1321.7438,115.9375 1321.3531,115.5469 1320.8844,115.5469 C1320.6656,115.5469 1320.4625,115.625 1320.275,115.8125 C1319.8219,116.2969 1319.8219,116.2969 1319.6344,116.3906 C1319.2125,116.6563 1318.525,116.7813 1317.7594,116.7813 C1315.7125,116.7813 1314.4156,115.6875 1314.4156,113.9844 L1314.4156,112.8906 C1314.4156,111.1094 1315.6656,109.7969 1317.4,109.7969 C1317.9781,109.7969 1318.5875,109.9531 1319.0563,110.2031 C1319.5406,110.4844 1319.7125,110.7031 1319.8063,111.1094 C1319.8688,111.5156 1319.9,111.6406 1320.0406,111.7656 C1320.1813,111.9063 1320.4156,112.0156 1320.6344,112.0156 C1320.9,112.0156 1321.1656,111.875 1321.3375,111.6563 C1321.4469,111.5 1321.4781,111.3125 1321.4781,110.8906 L1321.4781,109.4688 C1321.4781,109.0313 1321.4625,108.9063 1321.3688,108.75 C1321.2125,108.4844 1320.9313,108.3438 1320.6344,108.3438 C1320.3375,108.3438 1320.1344,108.4375 1319.9156,108.75 L1319.7438,108.6719 Z " fill="#000000"/><text fill="#000000" font-family="sans-serif" font-size="14" lengthAdjust="spacing" textLength="137" x="1331.6" y="117.8467">BillNumberCounter</text><line style="stroke:#181818;stroke-width:0.5;" x1="1302.5" x2="1471.5" y1="129" y2="129"/><ellipse cx="1312.5" cy="142.6484" fill="none" rx="3" ry="3" style="stroke:#038048;stroke-width:1.0;"/><text fill="#000000" font-family="sans-serif" font-size="14" lengthAdjust="spacing" textLength="145" x="1321.5" y="145.9951">billNumber: Number</text><line style="stroke:#181818;stroke-width:0.5;" x1="1302.5" x2="1471.5" y1="153.2969" y2="153.2969"/></g><!--class StitchCloth--><g id="elem_StitchCloth"><rect fill="#F1F1F1" height="48" id="StitchCloth" rx="2.5" ry="2.5" style="stroke:#181818;stroke-width:0.5;" width="115" x="1220.5" y="918"/><ellipse cx="1235.5" cy="934" fill="#ADD1B2" rx="11" ry="11" style="stroke:#181818;stroke-width:1.0;"/><path d="M1237.8438,929.6719 C1236.9063,929.2344 1236.3125,929.0938 1235.4375,929.0938 C1232.8125,929.0938 1230.8125,931.1719 1230.8125,933.8906 L1230.8125,935.0156 C1230.8125,937.5938 1232.9219,939.4844 1235.8125,939.4844 C1237.0313,939.4844 1238.1875,939.1875 1238.9375,938.6406 C1239.5156,938.2344 1239.8438,937.7813 1239.8438,937.3906 C1239.8438,936.9375 1239.4531,936.5469 1238.9844,936.5469 C1238.7656,936.5469 1238.5625,936.625 1238.375,936.8125 C1237.9219,937.2969 1237.9219,937.2969 1237.7344,937.3906 C1237.3125,937.6563 1236.625,937.7813 1235.8594,937.7813 C1233.8125,937.7813 1232.5156,936.6875 1232.5156,934.9844 L1232.5156,933.8906 C1232.5156,932.1094 1233.7656,930.7969 1235.5,930.7969 C1236.0781,930.7969 1236.6875,930.9531 1237.1563,931.2031 C1237.6406,931.4844 1237.8125,931.7031 1237.9063,932.1094 C1237.9688,932.5156 1238,932.6406 1238.1406,932.7656 C1238.2813,932.9063 1238.5156,933.0156 1238.7344,933.0156 C1239,933.0156 1239.2656,932.875 1239.4375,932.6563 C1239.5469,932.5 1239.5781,932.3125 1239.5781,931.8906 L1239.5781,930.4688 C1239.5781,930.0313 1239.5625,929.9063 1239.4688,929.75 C1239.3125,929.4844 1239.0313,929.3438 1238.7344,929.3438 C1238.4375,929.3438 1238.2344,929.4375 1238.0156,929.75 L1237.8438,929.6719 Z " fill="#000000"/><text fill="#000000" font-family="sans-serif" font-size="14" lengthAdjust="spacing" textLength="83" x="1249.5" y="938.8467">StitchCloth</text><line style="stroke:#181818;stroke-width:0.5;" x1="1221.5" x2="1334.5" y1="950" y2="950"/><line style="stroke:#181818;stroke-width:0.5;" x1="1221.5" x2="1334.5" y1="958" y2="958"/></g><!--reverse link User to Customer--><g id="link_User_Customer"><path codeLine="146" d="M524.7482,210.641 C580.0132,241.803 627.798,271.368 682,311 C702.151,325.734 722.785,343.175 741.331,359.871 " fill="none" id="User-backto-Customer" style="stroke:#181818;stroke-width:1.0;"/><polygon fill="none" points="509.069,201.8,521.8012,215.8674,527.6952,205.4146,509.069,201.8" style="stroke:#181818;stroke-width:1.0;"/></g><!--reverse link User to Tailor--><g id="link_User_Tailor"><path codeLine="147" d="M265.2437,248.0093 C232.6237,283.7333 208.826,309.795 178.247,343.284 " fill="none" id="User-backto-Tailor" style="stroke:#181818;stroke-width:1.0;"/><polygon fill="none" points="277.381,234.717,260.8129,243.9635,269.6744,252.0551,277.381,234.717" style="stroke:#181818;stroke-width:1.0;"/></g><!--reverse link User to CuttingMaster--><g id="link_User_CuttingMaster"><path codeLine="148" d="M357.5474,252.5756 C353.0434,288.2996 350.334,309.795 346.112,343.284 " fill="none" id="User-backto-CuttingMaster" style="stroke:#181818;stroke-width:1.0;"/><polygon fill="none" points="359.799,234.717,351.5946,251.8251,363.5003,253.3261,359.799,234.717" style="stroke:#181818;stroke-width:1.0;"/></g><!--reverse link User to Helper--><g id="link_User_Helper"><path codeLine="149" d="M452.1424,249.7332 C479.7814,291.5482 500.782,323.32 524.932,359.856 " fill="none" id="User-backto-Helper" style="stroke:#181818;stroke-width:1.0;"/><polygon fill="none" points="442.217,234.717,447.137,253.0417,457.1478,246.4247,442.217,234.717" style="stroke:#181818;stroke-width:1.0;"/></g><!--reverse link Customer to Work--><g id="link_Customer_Work"><path codeLine="150" d="M742.0331,497.5105 C722.1771,516.1735 707.208,526.43 682,538 C491.814,625.292 399.019,498.363 215,598 C180.577,616.638 152.231,650.729 132.939,679.185 " fill="none" id="Customer-backto-Work" style="stroke:#181818;stroke-width:1.0;"/><polygon fill="#181818" points="750.777,489.292,743.6655,490.4866,742.0331,497.5105,749.1446,496.3159,750.777,489.292" style="stroke:#181818;stroke-width:1.0;"/></g><!--reverse link Tailor to Work--><g id="link_Tailor_Work"><path codeLine="151" d="M105,517.505 C105,572.807 105,632.536 105,679.152 " fill="none" id="Tailor-backto-Work" style="stroke:#181818;stroke-width:1.0;"/><polygon fill="#181818" points="105,505.505,101,511.505,105,517.505,109,511.505,105,505.505" style="stroke:#181818;stroke-width:1.0;"/></g><!--reverse link CuttingMaster to Work--><g id="link_CuttingMaster_Work"><path codeLine="152" d="M267.4048,515.0305 C225.0338,570.3325 177.375,632.536 141.659,679.152 " fill="none" id="CuttingMaster-backto-Work" style="stroke:#181818;stroke-width:1.0;"/><polygon fill="#181818" points="274.703,505.505,267.8787,507.835,267.4048,515.0305,274.2291,512.7005,274.703,505.505" style="stroke:#181818;stroke-width:1.0;"/></g><!--reverse link Customer to Measurement--><g id="link_Customer_Measurement"><path codeLine="153" d="M728.5807,497.2582 C710.6627,513.3612 700.216,522.465 682,538 C628.16,583.915 565.758,634.174 518.942,671.315 " fill="none" id="Customer-backto-Measurement" style="stroke:#181818;stroke-width:1.0;"/><polygon fill="#181818" points="737.506,489.237,730.3696,490.2725,728.5807,497.2582,735.7171,496.2227,737.506,489.237" style="stroke:#181818;stroke-width:1.0;"/></g><!--reverse link Customer to SoldBill--><g id="link_Customer_SoldBill"><path codeLine="154" d="M865.3076,498.4454 C904.0446,546.9064 949.927,604.307 990.275,654.784 " fill="none" id="Customer-backto-SoldBill" style="stroke:#181818;stroke-width:1.0;"/><polygon fill="#181818" points="857.815,489.072,858.4368,496.2562,865.3076,498.4454,864.6858,491.2612,857.815,489.072" style="stroke:#181818;stroke-width:1.0;"/></g><!--reverse link Customer to StitchBill--><g id="link_Customer_StitchBill"><path codeLine="155" d="M874.8694,497.3242 C894.3694,515.3032 908.344,525.277 932,538 C1025.42,588.245 1072.48,542.7 1163,598 C1168.89,601.598 1174.65,605.59 1180.25,609.877 " fill="none" id="Customer-backto-StitchBill" style="stroke:#181818;stroke-width:1.0;"/><polygon fill="#181818" points="866.047,489.19,867.7468,496.1979,874.8694,497.3242,873.1696,490.3163,866.047,489.19" style="stroke:#181818;stroke-width:1.0;"/></g><!--reverse link Customer to MeasurementHistory--><g id="link_Customer_MeasurementHistory"><path codeLine="156" d="M807,501.072 C807,561.022 807,636.998 807,687.475 " fill="none" id="Customer-backto-MeasurementHistory" style="stroke:#181818;stroke-width:1.0;"/><polygon fill="#181818" points="807,489.072,803,495.072,807,501.072,811,495.072,807,489.072" style="stroke:#181818;stroke-width:1.0;"/></g><!--reverse link StitchBill to StitchCloth--><g id="link_StitchBill_StitchCloth"><path codeLine="157" d="M1278,870.124 C1278,893.1218 1278,902.5927 1278,917.9158 " fill="none" id="StitchBill-backto-StitchCloth" style="stroke:#181818;stroke-width:1.0;"/><polygon fill="#181818" points="1278,858.124,1274,864.124,1278,870.124,1282,864.124,1278,858.124" style="stroke:#181818;stroke-width:1.0;"/></g><!--reverse link Analytics to MonthlyData--><g id="link_Analytics_MonthlyData"><path codeLine="158" d="M1113.2958,262.2187 C1104.3558,284.6417 1099.53,296.743 1090.8,318.634 " fill="none" id="Analytics-backto-MonthlyData" style="stroke:#181818;stroke-width:1.0;"/><polygon fill="#181818" points="1117.74,251.072,1111.8023,255.164,1113.2958,262.2187,1119.2335,258.1267,1117.74,251.072" style="stroke:#181818;stroke-width:1.0;"/></g><!--reverse link Analytics to DailyData--><g id="link_Analytics_DailyData"><path codeLine="159" d="M1218.7044,262.2186 C1226.5744,281.9566 1230.26,291.188 1238.04,310.717 " fill="none" id="Analytics-backto-DailyData" style="stroke:#181818;stroke-width:1.0;"/><polygon fill="#181818" points="1214.26,251.072,1212.7667,258.1268,1218.7044,262.2186,1220.1977,255.1638,1214.26,251.072" style="stroke:#181818;stroke-width:1.0;"/></g><!--SRC=[tLR1Rjim3BtxAtpUrXy8TcdI0UqXMx5as64O1iQcQosov4boEgFBlq-MRLco9RGv30DwClmeKO_a4waD1IdJBn95-fIawTkKGOMhTAS4OGy6gFM2Hovo7omvmuzDTK2nIlklmGMd_cuuWGBXGG8BWRBSyoCopr1myS3L_N3UY-mVVjT4jAlq1XIQDISKf6YNUntSstDEaer9mLSkZaCAiAefRn7lTCoV3ZynKtUvCUXZZwjq2xNvKrm1lQvumvJDWNMt1q9vDAUDplSFCdSF-GbOXbv24GJ3t8C0ybAZo-HBHLHMwZDwKdAYsXCV3_lsVUAvQPJIExOW5VuRkbb_me9JD8musLkazQKiAyvKITkNPN0UafCcgNXrwTbr8x8I9EPhGgaNqbIkYB52a8t02atEWfMZN7N5Zb5orA16-Z6vg5wkuRef3_Q9zUUvjBQJFSOi6zW4YkKv7vKohl-ClnfYhK-UutVf2MXZVzDpXDCjqRv4Er1ppbkI2TEqJdUScj9T9ebux0VjAz1HOvrsw3w1rhCpTVsFr7AaHFVRjckmJclEEi7EvMH0D4hgM1jHZ_UZEUox84CtTEwc8CpFHWSIUGzTB6kkfnAmPzAsxHk5fWkZEZh4InnX6Q_yZYU1Wl3RIoruGMPX3hcL7ihmSHCqQASOGBgQRhnvCztZ0BHSReEzqVVzTOTgX6W4E0HbOx_MKcaLoUGGUulWw_SrX5vDQbxCbdmiVdYmhErjDsxjq0jqWNDYNexl_rnTsH7fGFrKyTOuhmq7xmTxOgVi6urr3x9aU4RPV_-vui3EHgVR-uQnOyzGcyMecs5e94vddNQQbfLCeZ9xf-pFBFRY_GK0]--></g></svg>